<?xml version="1.0" encoding="UTF-8"?>
<svg id="_レイヤー_1" data-name="レイヤー_1" xmlns="http://www.w3.org/2000/svg" version="1.1" viewBox="0 0 267.57 275.52">
  <!-- Generator: Adobe Illustrator 29.6.1, SVG Export Plug-In . SVG Version: 2.1.1 Build 9)  -->
  <defs>
    <style>
      .st0 {
        fill: #d0e7df;
      }
    </style>
  </defs>
  <path class="st0" d="M133.57,70.62c-.4,0-.73-.33-.73-.74v-9.05c0-.41.33-.74.73-.74s.73.33.73.74v9.05c0,.41-.33.74-.73.74ZM133.57,52.51c-.4,0-.73-.33-.73-.74v-9.05c0-.41.33-.74.73-.74s.73.33.73.74v9.05c0,.41-.33.74-.73.74ZM133.57,34.4c-.4,0-.73-.33-.73-.74v-9.05c0-.41.33-.74.73-.74s.73.33.73.74v9.05c0,.41-.33.74-.73.74ZM133.57,16.3c-.4,0-.73-.33-.73-.74V6.5c0-.41.33-.74.73-.74s.73.33.73.74v9.05c0,.41-.33.74-.73.74Z"/>
  <path class="st0" d="M110.07,75.04c-.3,0-.58-.19-.68-.49l-3.05-8.51c-.14-.38.06-.81.43-.95.38-.14.79.06.93.44l3.05,8.51c.14.38-.06.81-.43.95-.08.03-.17.04-.25.04ZM103.97,58.02c-.3,0-.58-.19-.68-.49l-3.05-8.51c-.14-.38.06-.81.43-.95.38-.14.79.06.93.44l3.05,8.51c.14.38-.06.81-.43.95-.08.03-.17.04-.25.04ZM97.88,41c-.3,0-.58-.19-.68-.49l-3.05-8.51c-.14-.38.06-.81.43-.95.38-.14.79.06.93.44l3.05,8.51c.14.38-.06.81-.43.95-.08.03-.17.04-.25.04ZM91.78,23.99c-.3,0-.58-.19-.68-.49l-3.05-8.51c-.14-.38.06-.81.43-.95.38-.14.79.06.93.44l3.05,8.51c.14.38-.06.81-.43.95-.08.03-.17.04-.25.04Z"/>
  <path class="st0" d="M89.48,87.35c-.21,0-.41-.09-.56-.26l-5.73-6.94c-.26-.31-.22-.78.09-1.04.31-.26.77-.22,1.02.09l5.73,6.94c.26.31.22.78-.09,1.04-.14.12-.3.17-.47.17ZM78.02,73.48c-.21,0-.41-.09-.56-.26l-5.73-6.94c-.26-.31-.22-.78.09-1.04.31-.26.77-.22,1.02.09l5.73,6.94c.26.31.22.78-.09,1.04-.14.12-.3.17-.47.17ZM66.56,59.61c-.21,0-.41-.09-.56-.26l-5.73-6.94c-.26-.31-.22-.78.09-1.04.31-.26.77-.22,1.03.09l5.73,6.94c.26.31.22.78-.09,1.04-.14.12-.3.17-.47.17ZM55.1,45.73c-.21,0-.41-.09-.56-.26l-5.73-6.94c-.26-.31-.22-.78.09-1.04.31-.26.77-.22,1.02.09l5.73,6.94c.26.31.22.78-.09,1.04-.14.12-.3.17-.47.17Z"/>
  <path class="st0" d="M74.27,106.07c-.12,0-.25-.03-.36-.1l-7.72-4.53c-.35-.2-.47-.66-.27-1.01.2-.35.65-.47.99-.27l7.72,4.53c.35.2.47.66.27,1.01-.13.24-.38.37-.63.37ZM58.83,97.02c-.12,0-.25-.03-.36-.1l-7.72-4.53c-.35-.2-.47-.66-.27-1.01.2-.35.65-.47.99-.27l7.72,4.53c.35.2.47.66.27,1.01-.13.24-.38.37-.63.37ZM43.39,87.96c-.12,0-.25-.03-.36-.1l-7.72-4.53c-.35-.2-.47-.66-.27-1.01.2-.35.65-.47.99-.27l7.72,4.53c.35.2.47.66.27,1.01-.13.24-.38.37-.63.37ZM27.95,78.91c-.12,0-.25-.03-.36-.1l-7.72-4.53c-.35-.2-.47-.66-.27-1.01.2-.35.65-.47.99-.27l7.72,4.53c.35.2.47.66.27,1.01-.13.24-.38.37-.63.37Z"/>
  <path class="st0" d="M66.29,128.95s-.08,0-.13-.01l-8.78-1.57c-.4-.07-.66-.45-.59-.86.07-.4.45-.67.84-.6l8.78,1.57c.4.07.66.45.59.86-.06.36-.37.61-.72.61ZM48.73,125.8s-.08,0-.13-.01l-8.78-1.57c-.4-.07-.66-.45-.59-.86.07-.4.44-.67.84-.6l8.78,1.57c.4.07.66.45.59.86-.06.36-.37.61-.72.61ZM31.17,122.66s-.08,0-.13-.01l-8.78-1.57c-.4-.07-.66-.45-.59-.86.07-.4.45-.67.84-.6l8.78,1.57c.4.07.66.45.59.86-.06.36-.37.61-.72.61ZM13.61,119.52s-.08,0-.13-.01l-8.78-1.57c-.4-.07-.66-.45-.59-.86.07-.4.45-.67.84-.6l8.78,1.57c.4.07.66.45.59.86-.06.36-.37.61-.72.61Z"/>
  <path class="st0" d="M5.03,164.23c-.35,0-.65-.25-.72-.61-.07-.4.19-.78.59-.86l8.78-1.57c.39-.07.77.2.84.6.07.4-.19.78-.59.86l-8.78,1.57s-.09.01-.13.01ZM22.59,161.08c-.35,0-.65-.25-.72-.61-.07-.4.19-.79.59-.86l8.78-1.57c.4-.07.77.2.84.6.07.4-.19.79-.59.86l-8.78,1.57s-.09.01-.13.01ZM40.15,157.94c-.35,0-.65-.25-.72-.61-.07-.4.19-.78.59-.86l8.78-1.57c.4-.07.77.2.84.6.07.4-.19.78-.59.86l-8.78,1.57s-.09.01-.13.01ZM57.71,154.79c-.35,0-.65-.25-.72-.61-.07-.4.19-.79.59-.86l8.78-1.57c.4-.07.77.2.84.6.07.4-.19.79-.59.86l-8.78,1.57s-.09.01-.13.01Z"/>
  <path class="st0" d="M20.81,207.65c-.25,0-.5-.13-.63-.37-.2-.35-.08-.81.27-1.01l7.72-4.53c.35-.2.79-.08.99.27s.08.81-.27,1.01l-7.72,4.53c-.11.07-.24.1-.36.1ZM36.25,198.59c-.25,0-.5-.13-.63-.37-.2-.35-.08-.81.27-1.01l7.72-4.53c.35-.2.79-.08.99.27.2.35.08.81-.27,1.01l-7.72,4.53c-.11.07-.24.1-.36.1ZM51.69,189.54c-.25,0-.5-.13-.63-.37-.2-.35-.08-.81.27-1.01l7.72-4.53c.35-.2.79-.08.99.27.2.35.08.81-.27,1.01l-7.72,4.53c-.11.07-.24.1-.36.1ZM67.13,180.48c-.25,0-.5-.13-.63-.37-.2-.35-.08-.81.27-1.01l7.72-4.53c.35-.2.79-.08.99.27.2.35.08.81-.27,1.01l-7.72,4.53c-.11.07-.24.1-.36.1Z"/>
  <path class="st0" d="M50.25,242.97c-.17,0-.33-.06-.47-.17-.31-.26-.35-.73-.09-1.04l5.73-6.94c.26-.31.72-.35,1.02-.09.31.26.35.73.09,1.04l-5.73,6.94c-.14.17-.35.26-.56.26ZM61.71,229.1c-.16,0-.33-.06-.47-.17-.31-.26-.35-.73-.09-1.04l5.73-6.94c.26-.31.72-.35,1.02-.09.31.26.35.73.09,1.04l-5.73,6.94c-.14.17-.35.26-.56.26ZM73.18,215.22c-.16,0-.33-.06-.47-.17-.31-.26-.35-.73-.09-1.04l5.73-6.94c.26-.31.72-.35,1.02-.09.31.26.35.73.09,1.04l-5.73,6.94c-.14.17-.35.26-.56.26ZM84.64,201.35c-.16,0-.33-.06-.47-.17-.31-.26-.35-.73-.09-1.04l5.73-6.94c.26-.31.72-.35,1.02-.09.31.26.35.73.09,1.04l-5.73,6.94c-.14.17-.35.26-.56.26Z"/>
  <path class="st0" d="M89.82,265.93c-.08,0-.17-.01-.25-.04-.38-.14-.57-.56-.43-.95l3.05-8.51c.14-.38.56-.58.93-.44.38.14.57.56.43.95l-3.05,8.51c-.11.3-.39.49-.68.49ZM95.92,248.92c-.08,0-.17-.01-.25-.04-.38-.14-.57-.56-.43-.95l3.05-8.51c.14-.38.56-.58.93-.44.38.14.57.56.43.95l-3.05,8.51c-.11.3-.39.49-.68.49ZM102.01,231.9c-.08,0-.17-.01-.25-.05-.38-.14-.57-.56-.43-.95l3.05-8.51c.14-.38.55-.58.93-.44.38.14.57.56.43.95l-3.05,8.51c-.11.3-.39.49-.68.49ZM108.11,214.88c-.08,0-.17-.01-.25-.05-.38-.14-.57-.56-.43-.95l3.05-8.51c.14-.38.55-.58.93-.44.38.14.57.56.43.95l-3.05,8.51c-.11.3-.39.49-.68.49Z"/>
  <path class="st0" d="M134.73,273.77c-.4,0-.73-.33-.73-.74v-9.05c0-.41.33-.74.73-.74s.73.33.73.74v9.05c0,.41-.33.74-.73.74ZM134.73,255.66c-.4,0-.73-.33-.73-.74v-9.05c0-.41.33-.74.73-.74s.73.33.73.74v9.05c0,.41-.33.74-.73.74ZM134.73,237.55c-.4,0-.73-.33-.73-.74v-9.05c0-.41.33-.74.73-.74s.73.33.73.74v9.05c0,.41-.33.74-.73.74ZM134.73,219.44c-.4,0-.73-.33-.73-.74v-9.05c0-.41.33-.74.73-.74s.73.33.73.74v9.05c0,.41-.33.74-.73.74Z"/>
  <path class="st0" d="M179.57,265.53c-.3,0-.58-.19-.68-.49l-3.05-8.51c-.14-.38.06-.81.43-.95.38-.14.79.06.93.44l3.05,8.51c.14.38-.06.81-.43.95-.08.03-.17.04-.25.04ZM173.47,248.51c-.3,0-.58-.19-.68-.49l-3.05-8.51c-.14-.38.06-.81.43-.95.38-.14.79.06.93.44l3.05,8.51c.14.38-.06.81-.43.95-.08.03-.17.05-.25.05ZM167.37,231.5c-.3,0-.58-.19-.68-.49l-3.05-8.51c-.14-.38.06-.81.43-.95.38-.14.79.06.93.44l3.05,8.51c.14.38-.06.81-.43.95-.08.03-.17.04-.25.04ZM161.27,214.48c-.3,0-.58-.19-.68-.49l-3.05-8.51c-.14-.38.06-.81.43-.95.38-.14.79.06.93.44l3.05,8.51c.14.38-.06.81-.43.95-.08.03-.17.04-.25.04Z"/>
  <path class="st0" d="M218.93,242.21c-.21,0-.41-.09-.56-.26l-5.73-6.94c-.26-.31-.22-.78.09-1.04.31-.26.77-.22,1.02.09l5.73,6.94c.26.31.22.78-.09,1.04-.14.12-.3.17-.47.17ZM207.47,228.34c-.21,0-.41-.09-.56-.26l-5.73-6.94c-.26-.31-.22-.78.09-1.04.31-.26.77-.22,1.02.09l5.73,6.94c.26.31.22.78-.09,1.04-.14.12-.3.17-.47.17ZM196.01,214.47c-.21,0-.41-.09-.56-.26l-5.73-6.94c-.26-.31-.22-.78.09-1.04.31-.26.77-.22,1.02.09l5.73,6.94c.26.31.22.78-.09,1.04-.14.12-.3.17-.47.17ZM184.55,200.59c-.21,0-.41-.09-.56-.26l-5.73-6.94c-.26-.31-.22-.78.09-1.04.31-.26.77-.22,1.02.09l5.73,6.94c.26.31.22.78-.09,1.04-.14.12-.3.17-.47.17Z"/>
  <path class="st0" d="M248.07,206.63c-.12,0-.25-.03-.36-.1l-7.72-4.53c-.35-.2-.47-.66-.27-1.01.2-.35.65-.47.99-.27l7.72,4.53c.35.2.47.66.27,1.01-.13.24-.38.37-.63.37ZM232.63,197.57c-.12,0-.25-.03-.36-.1l-7.72-4.53c-.35-.2-.47-.66-.27-1.01.2-.35.65-.47.99-.27l7.72,4.53c.35.2.47.66.27,1.01-.13.24-.38.37-.63.37ZM217.18,188.52c-.12,0-.25-.03-.36-.1l-7.72-4.53c-.35-.2-.47-.66-.27-1.01.2-.35.65-.47.99-.27l7.72,4.53c.35.2.47.66.27,1.01-.13.24-.38.37-.63.37ZM201.74,179.46c-.12,0-.25-.03-.36-.1l-7.72-4.53c-.35-.2-.47-.66-.27-1.01.2-.35.65-.47.99-.27l7.72,4.53c.35.2.47.66.27,1.01-.13.24-.38.37-.63.37Z"/>
  <path class="st0" d="M263.46,163.07s-.08,0-.13-.01l-8.78-1.57c-.4-.07-.66-.45-.59-.86.07-.4.44-.67.84-.6l8.78,1.57c.4.07.66.45.59.86-.06.36-.37.61-.72.61ZM245.9,159.92s-.08,0-.13-.01l-8.78-1.57c-.4-.07-.66-.45-.59-.86.07-.4.45-.67.84-.6l8.78,1.57c.4.07.66.45.59.86-.06.36-.37.61-.72.61ZM228.35,156.78s-.08,0-.13-.01l-8.78-1.57c-.4-.07-.66-.45-.59-.86.07-.4.45-.67.84-.6l8.78,1.57c.4.07.66.45.59.86-.06.36-.37.61-.72.61ZM210.79,153.63s-.08,0-.13-.01l-8.78-1.57c-.4-.07-.66-.45-.59-.86.07-.4.44-.67.84-.6l8.78,1.57c.4.07.66.45.59.86-.06.36-.37.61-.72.61Z"/>
  <path class="st0" d="M201.8,127.79c-.35,0-.65-.25-.72-.61-.07-.4.19-.79.59-.86l8.78-1.57c.4-.07.77.2.84.6.07.4-.19.79-.59.86l-8.78,1.57s-.09.01-.13.01ZM219.36,124.65c-.35,0-.65-.25-.72-.61-.07-.4.19-.79.59-.86l8.78-1.57c.39-.07.77.2.84.6.07.4-.19.79-.59.86l-8.78,1.57s-.09.01-.13.01ZM236.92,121.5c-.35,0-.65-.25-.72-.61-.07-.4.19-.79.59-.86l8.78-1.57c.4-.07.77.2.84.6.07.4-.19.79-.59.86l-8.78,1.57s-.09.01-.13.01ZM254.48,118.36c-.35,0-.65-.25-.72-.61-.07-.4.19-.79.59-.86l8.78-1.57c.4-.07.77.2.84.6.07.4-.19.79-.59.86l-8.78,1.57s-.09.01-.13.01Z"/>
  <path class="st0" d="M193.44,105.06c-.25,0-.5-.13-.63-.37-.2-.35-.08-.81.27-1.01l7.72-4.53c.35-.2.79-.08.99.27.2.35.08.81-.27,1.01l-7.72,4.53c-.11.07-.24.1-.36.1ZM208.89,96c-.25,0-.5-.13-.63-.37-.2-.35-.08-.81.27-1.01l7.72-4.53c.35-.2.79-.08.99.27.2.35.08.81-.27,1.01l-7.72,4.53c-.11.07-.24.1-.36.1ZM224.33,86.95c-.25,0-.5-.13-.63-.37-.2-.35-.08-.81.27-1.01l7.72-4.53c.35-.2.79-.08.99.27.2.35.08.81-.27,1.01l-7.72,4.53c-.11.07-.24.1-.36.1ZM239.77,77.89c-.25,0-.5-.13-.63-.37-.2-.35-.08-.81.27-1.01l7.72-4.53c.35-.2.79-.08.99.27.2.35.08.81-.27,1.01l-7.72,4.53c-.11.07-.24.1-.36.1Z"/>
  <path class="st0" d="M177.93,86.59c-.16,0-.33-.06-.47-.17-.31-.26-.35-.73-.09-1.04l5.73-6.94c.26-.31.72-.35,1.02-.09.31.26.35.73.09,1.04l-5.73,6.94c-.14.17-.35.26-.56.26ZM189.39,72.72c-.16,0-.33-.06-.47-.17-.31-.26-.35-.73-.09-1.04l5.73-6.94c.26-.31.72-.35,1.03-.09.31.26.35.73.09,1.04l-5.73,6.94c-.14.17-.35.26-.56.26ZM200.85,58.85c-.16,0-.33-.06-.47-.17-.31-.26-.35-.73-.09-1.04l5.73-6.94c.26-.31.72-.35,1.02-.09.31.26.35.73.09,1.04l-5.73,6.94c-.14.17-.35.26-.56.26ZM212.31,44.98c-.16,0-.33-.06-.47-.17-.31-.26-.35-.73-.09-1.04l5.73-6.94c.26-.31.72-.35,1.02-.09.31.26.35.73.09,1.04l-5.73,6.94c-.14.17-.35.26-.56.26Z"/>
  <path class="st0" d="M157.14,74.64c-.08,0-.17-.01-.25-.04-.38-.14-.57-.56-.43-.95l3.05-8.51c.14-.38.56-.58.93-.44.38.14.57.56.43.95l-3.05,8.51c-.11.3-.39.49-.68.49ZM163.23,57.62c-.08,0-.17-.01-.25-.04-.38-.14-.57-.56-.43-.95l3.05-8.51c.14-.38.56-.58.93-.44.38.14.57.56.43.95l-3.05,8.51c-.11.3-.39.49-.68.49ZM169.33,40.6c-.08,0-.17-.01-.25-.04-.38-.14-.57-.56-.43-.95l3.05-8.51c.14-.38.55-.58.93-.44.38.14.57.56.43.95l-3.05,8.51c-.11.3-.39.49-.68.49ZM175.43,23.58c-.08,0-.17-.01-.25-.04-.38-.14-.57-.56-.43-.95l3.05-8.51c.14-.38.56-.58.93-.44.38.14.57.56.43.95l-3.05,8.51c-.11.3-.39.49-.68.49Z"/>
  <path class="st0" d="M144.66,77.57s-.09,0-.13-.01c-.4-.07-.66-.46-.59-.86l1.27-7.19c.07-.4.45-.67.84-.6.4.07.66.46.59.86l-1.27,7.19c-.06.36-.37.61-.72.61ZM147.5,61.47s-.09,0-.13-.01c-.4-.07-.66-.46-.59-.86l1.57-8.91c.07-.4.45-.67.84-.6.4.07.66.46.59.86l-1.57,8.91c-.06.36-.37.61-.72.61ZM150.65,43.64s-.09,0-.13-.01c-.4-.07-.66-.46-.59-.86l1.57-8.91c.07-.4.45-.67.84-.6.4.07.66.46.59.86l-1.57,8.91c-.06.36-.37.61-.72.61Z"/>
  <path class="st0" d="M122.83,77.71c-.35,0-.65-.25-.72-.61l-1.23-7.2c-.07-.4.2-.78.59-.85.4-.07.77.2.84.6l1.23,7.2c.07.4-.2.78-.59.85-.04,0-.08.01-.13.01ZM120.08,61.59c-.35,0-.65-.25-.72-.61l-1.52-8.92c-.07-.4.2-.78.59-.85.4-.07.77.2.84.6l1.52,8.92c.07.4-.2.78-.59.85-.04,0-.08.01-.13.01ZM117.03,43.75c-.35,0-.65-.25-.72-.61l-1.52-8.92c-.07-.4.2-.78.59-.85.4-.07.77.2.84.6l1.52,8.92c.07.4-.2.78-.59.85-.04,0-.08.01-.13.01Z"/>
  <path class="st0" d="M102.37,85.43c-.25,0-.5-.13-.63-.37l-3.58-6.34c-.2-.35-.08-.81.27-1.01.35-.2.79-.08.99.27l3.58,6.34c.2.35.08.81-.27,1.01-.11.07-.24.1-.36.1ZM94.36,71.24c-.25,0-.5-.13-.63-.37l-4.44-7.85c-.2-.35-.08-.81.27-1.01.35-.2.79-.08.99.27l4.44,7.85c.2.35.08.81-.27,1.01-.11.07-.24.1-.36.1ZM85.49,55.53c-.25,0-.5-.13-.63-.37l-4.44-7.85c-.2-.35-.08-.81.27-1.01.35-.2.79-.08.99.27l4.44,7.85c.2.35.08.81-.27,1.01-.11.07-.24.1-.36.1Z"/>
  <path class="st0" d="M85.74,99.79c-.17,0-.33-.06-.47-.17l-5.5-4.71c-.31-.26-.35-.73-.09-1.04.26-.31.72-.35,1.03-.09l5.5,4.71c.31.26.35.73.09,1.04-.14.17-.35.26-.56.26ZM73.43,89.24c-.17,0-.33-.06-.47-.17l-6.81-5.84c-.31-.26-.35-.73-.09-1.04.26-.31.72-.35,1.03-.09l6.81,5.84c.31.26.35.73.09,1.04-.14.17-.35.26-.56.26ZM59.81,77.56c-.17,0-.33-.06-.47-.17l-6.81-5.84c-.31-.26-.35-.73-.09-1.04.26-.31.72-.35,1.03-.09l6.81,5.84c.31.26.35.73.09,1.04-.14.17-.35.26-.56.26Z"/>
  <path class="st0" d="M74.95,119.06c-.08,0-.17-.01-.25-.05l-6.75-2.52c-.38-.14-.57-.57-.43-.95.14-.38.56-.58.93-.44l6.75,2.52c.38.14.57.57.43.95-.11.3-.39.48-.68.48ZM59.83,113.42c-.08,0-.17-.01-.25-.05l-8.37-3.12c-.38-.14-.57-.57-.43-.95.14-.38.56-.58.93-.44l8.37,3.12c.38.14.57.57.43.95-.11.3-.39.48-.68.48ZM43.09,107.18c-.08,0-.17-.01-.25-.05l-8.37-3.12c-.38-.14-.57-.57-.43-.95.14-.38.56-.58.93-.44l8.37,3.12c.38.14.57.57.43.95-.11.3-.39.48-.68.48Z"/>
  <path class="st0" d="M71.3,140.92h0l-7.19-.02c-.4,0-.73-.33-.73-.74,0-.41.33-.74.73-.74h0l7.19.02c.4,0,.73.33.73.74,0,.41-.33.74-.73.74ZM55.19,140.87h0l-8.91-.03c-.4,0-.73-.33-.73-.74,0-.41.33-.74.73-.74h0l8.92.03c.4,0,.73.33.73.74,0,.41-.33.74-.73.74ZM37.36,140.82h0l-8.92-.03c-.4,0-.73-.33-.73-.74,0-.41.33-.74.73-.74h0l8.92.03c.4,0,.73.33.73.74,0,.41-.33.74-.73.74Z"/>
  <path class="st0" d="M34.92,177.5c-.3,0-.58-.19-.68-.49-.14-.38.06-.81.44-.95l8.39-3.07c.38-.14.8.06.93.44.14.38-.06.81-.44.95l-8.39,3.07c-.08.03-.17.04-.25.04ZM51.69,171.35c-.3,0-.58-.19-.68-.49-.14-.38.06-.81.44-.95l8.39-3.07c.38-.14.8.06.93.44.14.38-.06.81-.44.95l-8.39,3.07c-.08.03-.17.04-.25.04ZM68.46,165.2c-.3,0-.58-.19-.68-.49-.14-.38.06-.81.44-.95l6.77-2.48c.38-.14.79.06.93.44.14.38-.06.81-.44.95l-6.77,2.48c-.08.03-.16.04-.25.04Z"/>
  <path class="st0" d="M53.36,209.74c-.21,0-.41-.09-.56-.27-.26-.31-.22-.78.09-1.04l6.84-5.8c.31-.26.77-.22,1.02.09.26.31.22.78-.09,1.04l-6.84,5.8c-.14.12-.3.17-.47.17ZM67.05,198.13c-.21,0-.41-.09-.56-.27-.26-.31-.22-.78.09-1.04l6.84-5.8c.31-.26.77-.22,1.02.09.26.31.22.78-.09,1.04l-6.84,5.8c-.14.12-.3.17-.47.17ZM80.74,186.53c-.21,0-.41-.09-.56-.27-.26-.31-.22-.78.09-1.04l5.52-4.68c.31-.26.77-.22,1.02.09.26.31.22.78-.09,1.04l-5.52,4.68c-.14.12-.3.17-.47.17Z"/>
  <path class="st0" d="M81.55,233.63c-.12,0-.25-.03-.36-.1-.35-.2-.47-.66-.26-1.01l4.48-7.83c.2-.35.65-.47.99-.27.35.2.47.66.26,1.01l-4.48,7.83c-.13.24-.38.37-.63.37ZM90.51,217.97c-.12,0-.25-.03-.36-.1-.35-.2-.47-.66-.26-1.01l4.48-7.83c.2-.35.65-.47.99-.27.35.2.47.66.26,1.01l-4.48,7.83c-.13.24-.38.37-.63.37ZM99.46,202.31c-.12,0-.25-.03-.36-.1-.35-.2-.47-.66-.26-1.01l3.61-6.32c.2-.35.65-.47.99-.27.35.2.47.66.26,1.01l-3.61,6.32c-.13.24-.38.37-.63.37Z"/>
  <path class="st0" d="M116.08,246.28s-.09,0-.13-.01c-.4-.07-.66-.46-.59-.86l1.57-8.91c.07-.4.45-.67.84-.6.4.07.66.46.59.86l-1.57,8.91c-.06.36-.37.61-.72.61ZM119.22,228.46s-.09,0-.13-.01c-.4-.07-.66-.46-.59-.86l1.57-8.91c.07-.4.45-.67.84-.6.4.07.66.46.59.86l-1.57,8.91c-.06.36-.37.61-.72.61ZM122.37,210.63s-.09,0-.13-.01c-.4-.07-.66-.46-.59-.86l1.27-7.19c.07-.4.45-.67.84-.6.4.07.66.46.59.86l-1.27,7.19c-.06.36-.37.61-.72.61Z"/>
  <path class="st0" d="M152.79,246.18c-.35,0-.65-.25-.72-.61l-1.52-8.92c-.07-.4.2-.78.59-.85.4-.07.77.2.84.6l1.52,8.92c.07.4-.2.78-.59.85-.04,0-.08.01-.13.01ZM149.74,228.34c-.35,0-.65-.25-.72-.61l-1.52-8.92c-.07-.4.2-.78.59-.85.4-.07.77.2.84.6l1.52,8.92c.07.4-.2.78-.59.85-.04,0-.08.01-.13.01ZM146.69,210.49c-.35,0-.65-.25-.72-.61l-1.23-7.2c-.07-.4.2-.78.59-.85.4-.07.77.2.84.6l1.23,7.2c.07.4-.2.78-.59.85-.04,0-.08.01-.13.01Z"/>
  <path class="st0" d="M187.25,233.33c-.25,0-.5-.13-.63-.37l-4.44-7.85c-.2-.35-.08-.81.27-1.01.35-.2.79-.08.99.27l4.44,7.85c.2.35.08.81-.27,1.01-.11.07-.24.1-.36.1ZM178.38,217.62c-.25,0-.5-.13-.63-.37l-4.44-7.85c-.2-.35-.08-.81.27-1.01.35-.2.79-.08.99.27l4.44,7.85c.2.35.08.81-.27,1.01-.11.07-.24.1-.36.1ZM169.5,201.92c-.25,0-.5-.13-.63-.37l-3.58-6.34c-.2-.35-.08-.81.27-1.01.35-.2.79-.08.99.27l3.58,6.34c.2.35.08.81-.27,1.01-.11.07-.24.1-.36.1Z"/>
  <path class="st0" d="M215.3,209.29c-.17,0-.33-.06-.47-.17l-6.81-5.84c-.31-.26-.35-.73-.09-1.04.26-.31.72-.35,1.03-.09l6.81,5.84c.31.26.35.73.09,1.04-.14.17-.35.26-.56.26ZM201.68,197.61c-.17,0-.33-.06-.47-.17l-6.81-5.84c-.31-.26-.35-.73-.09-1.04.26-.31.72-.35,1.03-.09l6.81,5.84c.31.26.35.73.09,1.04-.14.17-.35.26-.56.26ZM188.05,185.93c-.17,0-.33-.06-.47-.17l-5.5-4.71c-.31-.26-.35-.73-.09-1.04.26-.31.72-.35,1.03-.09l5.5,4.71c.31.26.35.73.09,1.04-.14.17-.35.26-.56.26Z"/>
  <path class="st0" d="M233.57,176.95c-.08,0-.17-.01-.25-.05l-8.37-3.12c-.38-.14-.57-.57-.43-.95.14-.38.56-.58.93-.44l8.37,3.12c.38.14.57.57.43.95-.11.3-.39.48-.68.48ZM216.83,170.71c-.08,0-.17-.01-.25-.05l-8.37-3.12c-.38-.14-.57-.57-.43-.95.14-.38.56-.58.93-.44l8.37,3.12c.38.14.57.57.43.95-.11.3-.39.48-.68.48ZM200.1,164.47c-.08,0-.17-.01-.25-.05l-6.75-2.52c-.38-.14-.57-.57-.43-.95.14-.38.56-.58.93-.44l6.75,2.52c.38.14.57.57.43.95-.11.3-.39.48-.68.48Z"/>
  <path class="st0" d="M239.85,140.21h0l-8.92-.03c-.4,0-.73-.33-.73-.74,0-.41.33-.74.73-.74h0l8.91.03c.4,0,.73.33.73.74,0,.41-.33.74-.73.74ZM222.02,140.16h0l-8.92-.02c-.4,0-.73-.33-.73-.74,0-.41.33-.74.73-.74h0l8.92.03c.4,0,.73.33.73.74,0,.41-.33.74-.73.74ZM204.19,140.11h0l-7.19-.02c-.4,0-.73-.33-.73-.74,0-.41.33-.74.73-.74h0l7.19.02c.4,0,.73.33.73.74,0,.41-.33.74-.73.74Z"/>
  <path class="st0" d="M193.07,118.29c-.3,0-.58-.19-.68-.49-.14-.38.06-.81.44-.95l6.76-2.48c.38-.14.8.06.93.44.14.38-.06.81-.44.95l-6.76,2.48c-.08.03-.16.04-.25.04ZM208.22,112.73c-.3,0-.58-.19-.68-.49-.14-.38.06-.81.44-.95l8.39-3.07c.38-.14.8.06.93.44.14.38-.06.81-.44.95l-8.39,3.07c-.08.03-.17.04-.25.04ZM224.99,106.59c-.3,0-.58-.19-.68-.49-.14-.38.06-.81.44-.95l8.39-3.07c.38-.14.79.06.93.44.14.38-.06.81-.44.95l-8.39,3.07c-.08.03-.16.04-.25.04Z"/>
  <path class="st0" d="M182.03,99.16c-.21,0-.41-.09-.56-.27-.26-.31-.22-.78.09-1.04l5.52-4.68c.31-.26.77-.22,1.02.09.26.31.22.78-.09,1.04l-5.52,4.68c-.14.12-.3.17-.47.17ZM194.4,88.68c-.21,0-.41-.09-.56-.27-.26-.31-.22-.78.09-1.04l6.85-5.8c.31-.26.77-.22,1.02.09.26.31.22.78-.09,1.04l-6.85,5.8c-.14.12-.3.17-.47.17ZM208.09,77.07c-.21,0-.42-.09-.56-.27-.26-.31-.22-.78.09-1.04l6.85-5.8c.31-.26.77-.22,1.02.09.26.31.22.78-.09,1.04l-6.85,5.8c-.14.12-.3.17-.47.17Z"/>
  <path class="st0" d="M165.22,85.02c-.12,0-.25-.03-.36-.1-.35-.2-.47-.66-.26-1.01l3.61-6.32c.2-.35.65-.47.99-.27.35.2.47.66.26,1.01l-3.61,6.32c-.13.24-.38.37-.63.37ZM173.31,70.87c-.12,0-.25-.03-.36-.1-.35-.2-.47-.66-.26-1.01l4.48-7.83c.2-.35.65-.47.99-.27.35.2.47.66.26,1.01l-4.48,7.83c-.13.24-.38.37-.63.37ZM182.27,55.21c-.12,0-.25-.03-.36-.1-.35-.2-.47-.66-.26-1.01l4.48-7.83c.2-.35.65-.47.99-.27.35.2.47.66.26,1.01l-4.48,7.83c-.13.24-.38.37-.63.37Z"/>
</svg>